#N canvas 0 101 450 300 16;
#X obj 39 28 inlet;
#X obj 42 80 t s b b;
#X obj 88 146 makefilename %c;
#X obj 249 146 makefilename %c;
#X obj 45 217 makesymbol %s%s%s;
#X obj 40 187 pack s s s;
#X obj 40 251 outlet;
#X msg 87 116 13;
#X msg 248 116 10;
#X connect 0 0 1 0;
#X connect 1 0 5 0;
#X connect 1 1 7 0;
#X connect 1 2 8 0;
#X connect 2 0 5 1;
#X connect 3 0 5 2;
#X connect 4 0 6 0;
#X connect 5 0 4 0;
#X connect 7 0 2 0;
#X connect 8 0 3 0;
