#N canvas 981 366 450 300 10;
#X obj 81 33 inlet;
#X obj 82 117 list2symbol;
#X obj 83 206 ascseq;
#X obj 86 241 outlet;
#X obj 82 179 addnewline;
#X connect 0 0 1 0;
#X connect 1 0 4 0;
#X connect 2 0 3 0;
#X connect 4 0 2 0;
