#N canvas 0 289 825 657 16;
#X obj 37 502 comport 0 115200;
#X obj 136 -34 vsl 15 128 0 1023 0 0 empty empty empty 0 -9 0 10 -262144
-1 -1 3400 1;
#X obj 136 111 i;
#X obj 175 -38 vsl 15 128 0 1023 0 0 empty empty empty 0 -9 0 10 -262144
-1 -1 300 1;
#X obj 175 111 i;
#X obj 214 -38 vsl 15 128 0 1023 0 0 empty empty empty 0 -9 0 10 -262144
-1 -1 0 1;
#X obj 214 111 i;
#X obj 255 -37 vsl 15 128 0 1023 0 0 empty empty empty 0 -9 0 10 -262144
-1 -1 0 1;
#X obj 252 111 i;
#X msg 74 459 open 0;
#X msg 20 112 symbol d;
#X obj 66 148 pack s f f f f;
#X msg 292 468 list t;
#X obj 264 514 bng 15 50 25 0 empty empty empty 17 7 0 10 -262144 -1
-1;
#X msg 306 349 bang;
#X obj 287 419 metro 250;
#X floatatom 389 340 5 0 0 0 - - -;
#X msg 166 463 close;
#X obj 37 424 makepacket;
#X obj 434 136 stripnote;
#X obj 412 196 route 50;
#X obj 348 86 print;
#X obj 473 74 notein;
#X connect 1 0 2 0;
#X connect 2 0 10 0;
#X connect 2 0 11 1;
#X connect 3 0 4 0;
#X connect 4 0 10 0;
#X connect 4 0 11 2;
#X connect 5 0 6 0;
#X connect 6 0 10 0;
#X connect 6 0 11 3;
#X connect 7 0 8 0;
#X connect 8 0 11 4;
#X connect 9 0 0 0;
#X connect 10 0 11 0;
#X connect 11 0 18 0;
#X connect 11 0 21 0;
#X connect 12 0 18 0;
#X connect 12 0 13 0;
#X connect 14 0 15 0;
#X connect 15 0 12 0;
#X connect 16 0 15 1;
#X connect 17 0 0 0;
#X connect 18 0 0 0;
#X connect 19 0 20 0;
#X connect 20 0 12 0;
#X connect 22 0 19 0;
#X connect 22 1 19 1;
